<svg id="Capa_1" data-name="Capa 1" xmlns="http://www.w3.org/2000/svg" xmlns:xlink="http://www.w3.org/1999/xlink" viewBox="0 0 2560 284"><defs><style>.cls-1{fill:url(#Degradado_sin_nombre_34);}.cls-2{fill:#bb2333;}.cls-3{fill:#f7f3e3;}.cls-4{fill:#140d09;}</style><linearGradient id="Degradado_sin_nombre_34" x1="-0.5" y1="142" x2="2559.5" y2="142" gradientUnits="userSpaceOnUse"><stop offset="0" stop-color="#140d09"/><stop offset="0.5" stop-color="#271609"/><stop offset="1" stop-color="#140d09"/></linearGradient></defs><rect class="cls-1" x="-0.5" width="2560" height="284"/><g id="g24"><path id="path26" class="cls-2" d="M166.42,95c-2.22,8.37,21.65,11.26,22.2,24.9.76,19.25-33.4,15-44.05,13.15-6.1-2.19-5-12.82-.27-15.79,3.14-1.36,8.85,1.85,13.52-.85,3.23-1.89,2-5.63-.45-7-7-3.94-14.64-9.22-16.39-17.62-4.27-23.85,33.39-15.73,44-7.12,2.41,2.24,2.38,7.27,0,8.59-3.5,1.9-17-3.93-18.5,1.76"/></g><g id="g28"><path id="path30" class="cls-2" d="M225.46,111.2c.2-4.57-.22-7.13-1-12.56-.48-3.25-8-3-8.41-.18-.66,4.4-1.17,11.84-1.18,12.9,0,3.17,10.47,3,10.62-.16m9.89-28.39c5.51,1.93,7,17.53,8,24.18,1.1,7.51,3.69,18.66.45,25.89-5.16,1.35-11.05,1.25-16.22.83-3.27-.27-4.32-7.21-4.69-8.55-.3-1-5.23-2.08-5.9.52s-.75,6.7-2.64,7.29c-4.8,1.49-13.76,2.26-18.43-.78-2.56-7.36-.4-17.3.7-24.71,1.13-7.59,2-17.6,6.67-24,8.37-3.89,25.42-3,32.06-.68"/></g><g id="g32"><path id="path34" class="cls-2" d="M273.26,132.7c-2.53,1.56-16.76,1.8-18-1.15-2-4.85-.37-16.71-.39-25.06,0-7.26-1.71-21,1.53-24,2.57-2.4,15.43-4.36,18.88-2,4.63,3.23,11,23,12.07,22.68,1.83-.54-3.87-22.67-.25-25.94,2.08-1.87,15.41-4.08,17.14-1.34,3.21,5.07,1.38,19.61,1.51,29.21.1,7.53,2,25-1.53,27.49-2.62,1.9-16.11,2.41-19.27-.88s-8.34-18.35-9.56-18c-1.62.51,1.41,16.73-2.13,18.91"/></g><g id="g36"><path id="path38" class="cls-2" d="M149.75,205.42c0,3.62.66,7.41,2.56,7.64s1.82-34.66,1.79-36.56c-.08-4.22,8-2.24,8.21-2.09,1.06.61.42,42.49-.5,45.27-.6,1.9-11.21,1.75-15.55,1.1s-5.09-6.27-5.43-12.39.21-64.22,3.63-65.29,15.8-1.26,17.43.11.65,7.14-.27,7.87c-12.81-1.17-11.87-12.15-11.87,54.34"/></g><g id="g40"><path id="path42" class="cls-2" d="M180.71,211.58c.26-3.39.34-55.52-.15-59.78-.31-2.55-5.29-2.17-5.48,0-.23,3.42.27,59.24.27,60,0,2.47,5.17,2.13,5.36-.3m9.24-2.89c0,10.19-2.66,12.24-11.56,12.39S165,219,165,208.65c0-75,2.36-67.69,13.19-67.15,11.22.57,11.79-7.8,11.79,67.19"/></g><g id="g44"><path id="path46" class="cls-2" d="M200.86,220c-1.37.42-8,.91-8-.68s-.72-76.44.42-77.16,7.3-1.06,8.4.11,4.19,12.59,5.44,12.63-1.29-13.08-.15-13.35,7.15-.57,7.72,1,1.25,77.23,0,77.5-7.49,1-8.6-.54-2.73-9.58-4.29-9.58c-.88,0,.45,9.62-.91,10"/></g><g id="g48"><path id="path50" class="cls-2" d="M235.07,141.5c1.22.64,1.75,4.63,1.49,6.19s-5.36,63.7-5.36,64.65,4.52.8,5.2,1.52-.38,5.29-1.18,6.12-9.69.84-13.49.42-3.08-2.62-3-6,6.31-63.2,6.31-64.57-5.93-.42-6.61-1.25-.42-5.67.53-6.24c2.13-1.29,14.87-1.48,16.08-.83"/></g><g id="g52"><path id="path54" class="cls-2" d="M252.18,207.7c.08-2.62-.11-54-.46-57.15-.22-1.87-3.53-1.72-3.72-.08-.31,2.51-.53,56.74-.53,57.34,0,1.83,4.63,1.72,4.71-.11m4.37-66c2.85.72,5.4,76.66,3.81,78.41-.5.53-5.75.64-7.23.45s-1.94-4.06-2.09-4.86c-.15-.61-2.32-1.18-2.62.3s-.31,3.73-1.18,4.15c-1.18.6-7.53,1-8.21-.42-1.37-3.12,1.17-74.57,3.34-77.46,1.18-1.6,12.39-1.07,14.18-.57"/></g><g id="g56"><path id="path58" class="cls-2" d="M274.5,211.46c.53,1.56,4.94-.3,7,.42.46.16,2.28,5.48-.15,7.64-.91.84-16.5,2.48-17.19-.83s-1.06-76.7.12-77.16,10-1.14,10,.57c.11,8.14-1.37,64.88.19,69.36"/></g><g id="g60"><path id="path62" class="cls-2" d="M299.32,211.58c.27-3.39.34-55.52-.15-59.78-.3-2.55-5.28-2.17-5.48,0-.22,3.42.27,59.24.27,60,0,2.47,5.17,2.13,5.36-.3m9.24-2.89c0,10.19-2.66,12.24-11.56,12.39s-13.42-2.07-13.42-12.43c0-69.84-1.25-67.15,13.19-67.15,11.24,0,11.79,2.41,11.79,67.19"/></g><g id="g64"><path id="path66" class="cls-3" d="M300.87,261.25H149.49a8.51,8.51,0,0,1-8.51-8.51v-15a8.51,8.51,0,0,1,8.51-8.51H300.87a8.51,8.51,0,0,1,8.51,8.51v15a8.51,8.51,0,0,1-8.51,8.51"/></g><g id="g68"><path id="path70" class="cls-4" d="M157.12,244.41c-.13,2.54.11,5.21,1.45,5.37s1.28-1.76,1.25-3.1c0-3,5.61-1.58,5.78-1.47.74.43.29,7.27-.35,9.22-.43,1.33-7.88,1.23-10.93.77s-3.58-4.4-3.82-8.71.51-11.06,2.91-11.81,10.74.19,11.89,1.15.46,5-.19,5.53c-4.24,1.2-7.69-3.68-8,3"/></g><g id="g72"><path id="path74" class="cls-4" d="M178.53,248.74a30.21,30.21,0,0,0-.11-6.87c-.21-1.79-3.71-1.52-3.85,0-.16,2.4.19,6.49.19,7,0,1.74,3.63,1.5,3.77-.21m6.49-2c0,7.16-1.87,8.6-8.12,8.71s-9-1.47-9.44-8.74c-.45-8.12,1.66-12.42,9.28-12.05,7.88.4,8.28,3.47,8.28,12.08"/></g><g id="g76"><path id="path78" class="cls-4" d="M198,248.74a29.65,29.65,0,0,0-.11-6.87c-.21-1.79-3.71-1.52-3.84,0-.16,2.4.18,6.49.18,7,0,1.74,3.64,1.5,3.77-.21m6.49-2c0,7.16-1.87,8.6-8.12,8.71s-9-1.47-9.43-8.74c-.46-8.12,1.66-12.42,9.27-12.05,7.88.4,8.28,3.47,8.28,12.08"/></g><g id="g80"><path id="path82" class="cls-4" d="M215.32,249.65c.88-.73.8-3.53.8-4.65s-.22-3.4-1.28-4-2.14-.25-2.22.88a59.24,59.24,0,0,0,.19,7c0,1.28,1.6,1.42,2.51.7m1.2-14.81c2.46.62,4.94,4.55,5,9.73s-1.92,9.48-4.08,10.15-9.52.51-10.48,0-.56-19,.24-19.77c1-.67,6.81-.75,9.3-.11"/></g><g id="g84"><path id="path86" class="cls-4" d="M245.24,234.79c.83.19,1.1,4.38,0,5s-4.06.24-4.92.51c-.48.16-.42,2.13,0,2.32,1.09.51,4.06,0,4.51.48s.7,2.86.14,4-3.45.8-4.33,1.17.32,4.95-.72,6.09-4.65.81-5.69.43-.54-18.81.56-19.72c1.12-.66,9.51-.56,10.47-.29"/></g><g id="g88"><path id="path90" class="cls-4" d="M257.91,248.74a30.21,30.21,0,0,0-.11-6.87c-.21-1.79-3.71-1.52-3.85,0-.16,2.4.19,6.49.19,7,0,1.74,3.63,1.5,3.77-.21m6.49-2c0,7.16-1.87,8.6-8.12,8.71s-9-1.47-9.44-8.74c-.45-8.12,1.66-12.42,9.28-12.05,7.88.4,8.28,3.47,8.28,12.08"/></g><g id="g92"><path id="path94" class="cls-4" d="M277.41,248.74a29.65,29.65,0,0,0-.11-6.87c-.21-1.79-3.71-1.52-3.84,0-.17,2.4.18,6.49.18,7,0,1.74,3.64,1.5,3.77-.21m6.49-2c0,7.16-1.87,8.6-8.12,8.71s-9-1.47-9.43-8.74c-.46-8.12,1.65-12.42,9.27-12.05,7.88.4,8.28,3.47,8.28,12.08"/></g><g id="g96"><path id="path98" class="cls-4" d="M294.7,249.65c.88-.73.8-3.53.8-4.65s-.22-3.4-1.28-4-2.14-.25-2.22.88a59.24,59.24,0,0,0,.19,7c0,1.28,1.6,1.42,2.51.7m1.2-14.81c2.46.62,4.94,4.55,5,9.73s-1.92,9.48-4.09,10.15-9.51.51-10.47,0-.56-19,.24-19.77c1-.67,6.81-.75,9.3-.11"/></g><g id="g100"><path id="path102" class="cls-2" d="M147.24,61a3.82,3.82,0,0,0,1.44,2.08c4.26,3.07,22.27,13.44,71.4,13.44,48.09,0,73.46-7.1,80.56-9.45a3.82,3.82,0,0,0,2.54-3c.89-5.09,2.22-17.18-5-17.18C289.37,47,261.47,61.88,235,62.3a3.81,3.81,0,0,1-3.86-3.59l-.61-10.26a3.81,3.81,0,0,1,3.3-4l8.33-1.11a3.82,3.82,0,0,0,3.3-4l-.14-2.84a3.8,3.8,0,0,0-4.05-3.61l-8.4.54a3.8,3.8,0,0,1-4-3.32l-1.12-8.65a3.8,3.8,0,0,0-4.11-3.3l-4.3.37a3.81,3.81,0,0,0-3.47,4.12l.85,9.94a3.81,3.81,0,0,1-3.79,4.13h-7.16a3.8,3.8,0,0,0-3.79,3.48L201.58,44a3.82,3.82,0,0,0,4.07,4.13l9.4-.45a3.8,3.8,0,0,1,4,3.21l1.34,8.6a3.79,3.79,0,0,1-3.71,4.39c-9.83.11-37.18-.66-54.3-9.82-18.56-9.92-16.32,2.77-15.18,6.93"/></g><path class="cls-2" d="M514,76.16c6.29,3,10.55,9.33,12.17,16.23a35.8,35.8,0,0,1-1,20.09c-1,2.84-3.25,5.48-6.09,5.68-2.84,0-5.07-2.64-5.88-5.28-1.62-4.26-2.44-9.13-4.06-13.19-1.22-2.84-3-5.68-5.88-6.89a11.87,11.87,0,0,0-12.78,2c-2.64,2.43-3.25,6.29-3.05,9.53.81,7.31,3.86,14,7.31,20.09,5.47,9.74,12.78,18.06,19.88,26.17,5.88,6.7,11.77,13.6,14.61,22.52,3.65,11.77.2,26.18-7.91,36.32a38.81,38.81,0,0,1-24.56,13.8c-8.11,1.22-16.43.2-22.92-4.26-6.7-4.87-10.15-13.6-10.15-22.32,0-4.47.81-9.33,4.06-12.58a8.4,8.4,0,0,1,10.35-1.42c3.24,2.23,4.67,6.29,5.27,10.14.82,3.66,1,7.51,2.64,10.76a5.08,5.08,0,0,0,4.87,3,20.23,20.23,0,0,0,13.19-6.29,12.09,12.09,0,0,0,3.65-9.54c-.81-4-3.24-7.3-5.48-10.14-8.72-10.55-18.87-19.48-27-30.64a63.23,63.23,0,0,1-12.38-41.18c.41-8.73,3-17.66,8.73-24.76,5.47-6.49,13.59-10.14,21.5-11.16C500.44,72.1,507.74,72.91,514,76.16Z"/><path class="cls-2" d="M580,75.14h.21c2.43-.2,4.26,1.63,5.68,3.45A63.94,63.94,0,0,1,593,93c5.68,15,10.35,30.43,14.61,45.85q2.73,10.35,5.47,20.7a2.66,2.66,0,0,1,.61.81,10.85,10.85,0,0,1,1,5.07c2.23,8.93,4.26,18.06,6.08,27.19,1.42,7.3,2.85,14.81,2.85,22.32-.21,3-.21,6.49-2.64,8.72-2,1.83-5.28,1.63-7.71.82a25.24,25.24,0,0,0-5.28-1.42c-3.24-.61-5.68-3.25-7.3-6.09-3.45-6.49-5.48-13.8-7.31-20.9-1.21-4.26-2.23-8.72-3.24-13.19a141.23,141.23,0,0,1-16.23.2c-1.22,0-2.64-.2-3.86-.2a55.21,55.21,0,0,1-1.42,5.48c-2,8.72-4.06,17.45-7.71,25.77-1.62,3.24-3.45,6.9-7.1,8.52a46.65,46.65,0,0,0-5.07,1.22c-2.84,1-6.09,2-8.73.4-2.43-1.42-3-4.26-3.24-6.69-.61-6.29.4-12.58,1.42-18.67,1.21-7.1,2.63-14,4.26-21.1a.74.74,0,0,0-.41-.2,5.82,5.82,0,0,1-2-6.09,14.12,14.12,0,0,1,3.45-6.09,5.13,5.13,0,0,1,2.44-1.82c.6-2.23,1.21-4.26,1.62-6.29,4.87-18.67,10.14-37.13,16.23-55.39,2.84-7.51,5.28-15.22,9.54-22.12,1.62-2.23,3.45-4.67,6.29-4.67Zm-4.26,81.16c2.84-.2,5.68-.61,8.52-.81q-1.51-8.22-3-16.43c-.41-1.83-.81-3.86-1.22-5.68C578.55,141.08,577.13,148.79,575.71,156.3Z"/><path class="cls-2" d="M663.77,77.38a11.75,11.75,0,0,1,5.07,4.87c3.65,5.47,5.68,11.56,7.71,17.85,5.07,16.44,9.33,33.07,14,49.71,1.62,6.29,3.25,12.58,5.07,18.87V152.85c.21-15.62.21-31.45,1.42-47.07.61-6.29,1-12.78,3.05-18.87,1-3,2.84-6.08,6.08-6.9,2.84-.2,5.48-1.82,8.53-2,.2,0,.4-.2.6-.2A6.41,6.41,0,0,1,721.19,81c2,3.24,2.64,7.1,3,10.75,1,9.94.81,20.09.41,30.23-.81,21.92-2.64,43.83-5.28,65.54-1.21,8.93-2.43,18.06-4.87,26.78-1,3.25-2,6.9-4.46,9.33a5.35,5.35,0,0,1-3.86,1.42,6.86,6.86,0,0,1-3.45-1c-3.24-2-5.68-5.28-7.91-8.52-5.27-8.32-9.33-17.45-13.19-26.58-6.49-16-12.58-32.26-18.26-48.49,0,14.81-.2,29.62-.81,44.23a209.2,209.2,0,0,1-2.23,25.36c-.81,3.65-1.62,7.51-4.26,10.35-1.42,1.82-4.06,2.23-6.09,2.64-2.64.81-5.48,2-8.11,1.42-3.05-.82-4.87-3.66-5.69-6.29-1.82-6.29-2-12.79-2.23-19.08-.2-14.61.61-29.21,1.63-43.82,1.42-17.45,3-34.9,5.68-52.35,1.21-7.1,2.43-14.4,5.48-20.9A7.15,7.15,0,0,1,651,77.58a12,12,0,0,1,4.66-1h.61A45.43,45.43,0,0,1,663.77,77.38Z"/><path class="cls-2" d="M835.31,77.17c5.88,3.66,9.94,9.74,12.38,16a44.47,44.47,0,0,1,2.84,14.41c0,2.64-.41,5.68-2.64,7.3-2.23,1.42-5.07.41-7.1-1-5.28-3.65-8.32-9.74-13-13.8-2.63-2.43-6.29-4.06-9.74-3.45-5.47.61-9.94,4.67-12.78,9.13-4.46,7.31-6.08,16-6.69,24.55A112.55,112.55,0,0,0,801,161.17c1.22,5.68,3,11.57,6.29,16.44a18.4,18.4,0,0,0,9.74,7.3,30.8,30.8,0,0,0,10.55,1.42c2.64,0,5.28-.2,7.91-.2a136,136,0,0,1-.81-23.94c-4.06-.21-17.24-2.23-21.51-4.26-2.63-1-4.86-3.25-5.07-5.89,0-2.43-.81-6.49,6.7-10.75,7.51-4.47,17.24-5.89,28.4-5.07,11.16.6,13.39,2.43,15.83,4.66,2.64,3.05,3.25,7.1,3.45,10.76.61,8.32-.2,16.63-1.22,24.75a147.42,147.42,0,0,1-4.46,22.93c-1,3.45-2.23,7.1-5.07,9.53a2.85,2.85,0,0,1-1.63,1,12.26,12.26,0,0,1-4.06,4.46c-4.87,3.25-10.55,4.87-16.43,5.68-9.13,1.22-19.07.61-27.8-3.85-7.71-3.86-13.39-10.76-17.24-18.26-5.28-10.76-7.92-22.73-8.73-34.5a142.54,142.54,0,0,1,6.29-50.72c3.45-10.35,8.32-20.49,15.83-28.2,6.49-6.5,15.21-10.76,24.55-10.76h.81A28.12,28.12,0,0,1,835.31,77.17Z"/><path class="cls-2" d="M929.45,79.41c7.51,3,13.39,9.33,17.45,16.23,2,3.45,3.86,6.69,5.68,10.14,4.06,8.93,5.68,18.67,6.5,28.2a195.37,195.37,0,0,1-1.42,42.21C956,187.14,953.6,198.3,947.92,208c-4.06,6.9-9.94,12.78-17.45,15.83-11.16,4.26-23.94,2.84-34.29-2.64A38.57,38.57,0,0,1,879.74,204c-4.87-9.94-6.49-21.1-7.1-32a194.41,194.41,0,0,1,3.65-47.28c2.44-10.75,5.48-21.51,11.77-30.64,6.5-9.74,17.65-16.43,29.42-16.84A30.43,30.43,0,0,1,929.45,79.41Zm-9.94,19.07c-4.06,1.82-7.1,5.27-9.33,8.92-4.06,6.9-6.29,14.82-7.71,22.53a153.38,153.38,0,0,0-2.23,34.69c.4,8.32,1.42,16.64,4.26,24.55a26.81,26.81,0,0,0,8.11,12,12.8,12.8,0,0,0,13.8,2c4.87-2.43,7.91-7.1,10.14-12,4.27-9.33,5.89-19.48,6.5-29.42,1.82-31.24-6.09-49.51-11.36-57.62-1.83-3-4.27-5.89-7.92-6.49A10.57,10.57,0,0,0,919.51,98.48Z"/><path class="cls-2" d="M1003.1,77.38a11.72,11.72,0,0,1,5.08,4.87c3.65,5.47,5.68,11.56,7.71,17.85,5.07,16.44,9.33,33.07,14,49.71,1.62,6.29,3.24,12.58,5.07,18.87V152.85c.2-15.62.2-31.45,1.42-47.07.61-6.29,1-12.78,3-18.87,1-3,2.84-6.08,6.09-6.9,2.84-.2,5.48-1.82,8.52-2,.2,0,.41-.2.61-.2a6.4,6.4,0,0,1,5.88,3.25c2,3.24,2.64,7.1,3,10.75,1,9.94.81,20.09.4,30.23-.81,21.92-2.63,43.83-5.27,65.54-1.22,8.93-2.44,18.06-4.87,26.78-1,3.25-2,6.9-4.47,9.33a5.31,5.31,0,0,1-3.85,1.42,6.83,6.83,0,0,1-3.45-1c-3.25-2-5.68-5.28-7.91-8.52-5.28-8.32-9.34-17.45-13.19-26.58-6.49-16-12.58-32.26-18.26-48.49,0,14.81-.2,29.62-.81,44.23-.41,8.52-.81,17-2.23,25.36-.82,3.65-1.63,7.51-4.27,10.35-1.42,1.82-4,2.23-6.08,2.64-2.64.81-5.48,2-8.12,1.42-3-.82-4.87-3.66-5.68-6.29-1.83-6.29-2-12.79-2.23-19.08-.2-14.61.61-29.21,1.62-43.82,1.42-17.45,3.05-34.9,5.68-52.35,1.22-7.1,2.44-14.4,5.48-20.9a7.15,7.15,0,0,1,4.26-4.46,12,12,0,0,1,4.67-1h.61A45.31,45.31,0,0,1,1003.1,77.38Z"/><path class="cls-2" d="M1127.28,77.17c2,.41,4.26.21,5.88,1.63l1.22,1.21a8.71,8.71,0,0,1,1.42,1c2.64,3,3,7.1,2.84,10.75C1138,97.87,1136.41,104,1135,110c-6.09,22.73-12.58,45.25-19.89,67.57a236.5,236.5,0,0,1-8.11,22.92,121.26,121.26,0,0,1,17-1.62c1,0,2-.2,2.84-.2,4.47.2,9.13.4,13,2.84,2.84,1.82,4.06,5.27,4.26,8.72,0,2.84.4,5.68-.2,8.52-.82,3.25-4.06,5.48-7.11,6.29-5.68,1.63-11.56,1.83-17.45,2a158.27,158.27,0,0,1-26-1.82c-3.45-.61-6.89-1.22-9.94-3a5.12,5.12,0,0,1-3-.2c-2.44-.81-3.25-3.45-3.25-5.68-.2-5.07,1-9.74,2-14.61,3.65-13.59,8.12-26.78,12.78-40,6.7-18.26,13.6-36.32,21.51-54.17,1.42-3.25,3-6.7,4.67-9.94-8.93,2.23-17.86,4.26-27,5.07-3.85.2-8.11.61-12-1.22-2.43-1-3.65-3.45-4.06-5.88-.61-3.45-1.62-7.1,0-10.35,1.42-3.25,4.87-4.87,8.12-5.88,7.71-2.44,15.82-3,23.94-3.45h3.86A111.59,111.59,0,0,1,1127.28,77.17Z"/><path class="cls-2" d="M1191,75.14h.2c2.44-.2,4.26,1.63,5.68,3.45A63.11,63.11,0,0,1,1204,93c5.68,15,10.35,30.43,14.61,45.85q2.75,10.35,5.48,20.7a2.83,2.83,0,0,1,.61.81,10.84,10.84,0,0,1,1,5.07c2.24,8.93,4.26,18.06,6.09,27.19,1.42,7.3,2.84,14.81,2.84,22.32-.2,3-.2,6.49-2.64,8.72-2,1.83-5.27,1.63-7.71.82a25.15,25.15,0,0,0-5.27-1.42c-3.25-.61-5.68-3.25-7.31-6.09-3.45-6.49-5.47-13.8-7.3-20.9-1.22-4.26-2.23-8.72-3.25-13.19a141.17,141.17,0,0,1-16.23.2c-1.22,0-2.64-.2-3.85-.2-.41,1.83-.82,3.65-1.42,5.48-2,8.72-4.06,17.45-7.71,25.77-1.63,3.24-3.45,6.9-7.11,8.52a47.22,47.22,0,0,0-5.07,1.22c-2.84,1-6.08,2-8.72.4-2.44-1.42-3-4.26-3.25-6.69-.61-6.29.41-12.58,1.42-18.67,1.22-7.1,2.64-14,4.26-21.1a.7.7,0,0,0-.4-.2,5.82,5.82,0,0,1-2-6.09,14,14,0,0,1,3.45-6.09,5.15,5.15,0,0,1,2.43-1.82c.61-2.23,1.22-4.26,1.62-6.29,4.87-18.67,10.15-37.13,16.24-55.39,2.84-7.51,5.27-15.22,9.53-22.12,1.63-2.23,3.45-4.67,6.29-4.67Zm-4.26,81.16c2.84-.2,5.68-.61,8.52-.81q-1.53-8.22-3-16.43c-.41-1.83-.82-3.86-1.22-5.68C1189.57,141.08,1188.15,148.79,1186.73,156.3Z"/><path class="cls-2" d="M1267.89,78.19c3.44,4.87,4.86,11,5.27,16.84.81,9.53.81,19.27,1,29,0,21.1.2,42.41-.82,63.71-.2,4.06-.4,8.12-.81,12.38a142.2,142.2,0,0,1,27.8-3.25c2.84,0,5.68,0,8.52.2,3.86.41,8.32,1,11.16,4.06,2.84,2.64,3,6.49,3,10.15,0,2.63.21,5.48-1.42,7.91-2.23,2.84-6.08,3.86-9.33,4.46-7.91,1.42-16,1.42-24.15,1.42a174.72,174.72,0,0,1-25.15-2,8.8,8.8,0,0,1-2.24.4c-2.63,1-5.27,2-8.11,1.42s-4.67-3.45-5.48-6.29c-1.83-5.88-2-12.17-2.23-18.46-.2-15,.61-30,1.62-45,1.22-17.85,2.84-35.91,5.68-53.76,1.22-7.1,2.23-14.61,5.28-21.31,1-2.23,2.64-4.66,5.27-4.87h.41A5.77,5.77,0,0,1,1267.89,78.19Z"/><path class="cls-2" d="M1385,79.41c7.5,3,13.39,9.33,17.45,16.23,2,3.45,3.85,6.69,5.68,10.14,4.05,8.93,5.68,18.67,6.49,28.2a195.37,195.37,0,0,1-1.42,42.21c-1.62,10.95-4.06,22.11-9.74,31.85-4.06,6.9-9.94,12.78-17.45,15.83-11.16,4.26-23.94,2.84-34.29-2.64A38.6,38.6,0,0,1,1335.25,204c-4.87-9.94-6.5-21.1-7.1-32a193.91,193.91,0,0,1,3.65-47.28c2.43-10.75,5.48-21.51,11.77-30.64,6.49-9.74,17.65-16.43,29.42-16.84A30.5,30.5,0,0,1,1385,79.41Zm-10,19.07c-4,1.82-7.1,5.27-9.33,8.92-4.06,6.9-6.29,14.82-7.71,22.53a153.38,153.38,0,0,0-2.23,34.69c.41,8.32,1.42,16.64,4.26,24.55a26.75,26.75,0,0,0,8.12,12,12.78,12.78,0,0,0,13.79,2c4.87-2.43,7.92-7.1,10.15-12,4.26-9.33,5.88-19.48,6.49-29.42,1.83-31.24-6.09-49.51-11.36-57.62-1.83-3-4.26-5.89-7.91-6.49A10.61,10.61,0,0,0,1375,98.48Z"/><path class="cls-2" d="M1532.17,77.17c5.88,3.66,9.94,9.74,12.38,16a44.47,44.47,0,0,1,2.84,14.41c0,2.64-.41,5.68-2.64,7.3-2.23,1.42-5.07.41-7.1-1-5.28-3.65-8.32-9.74-13-13.8-2.64-2.43-6.29-4.06-9.74-3.45-5.47.61-9.94,4.67-12.78,9.13-4.46,7.31-6.09,16-6.69,24.55a112.55,112.55,0,0,0,2.43,30.84c1.22,5.68,3,11.57,6.29,16.44a18.4,18.4,0,0,0,9.74,7.3,30.8,30.8,0,0,0,10.55,1.42c2.64,0,5.27-.2,7.91-.2a136,136,0,0,1-.81-23.94c-4.06-.21-17.25-2.23-21.51-4.26-2.63-1-4.87-3.25-5.07-5.89,0-2.43-.81-6.49,6.7-10.75,7.5-4.47,17.24-5.89,28.4-5.07,11.16.6,13.39,2.43,15.83,4.66,2.64,3.05,3.24,7.1,3.45,10.76.61,8.32-.21,16.63-1.22,24.75a147.42,147.42,0,0,1-4.46,22.93c-1,3.45-2.24,7.1-5.08,9.53a2.8,2.8,0,0,1-1.62,1,12.26,12.26,0,0,1-4.06,4.46c-4.87,3.25-10.55,4.87-16.43,5.68-9.13,1.22-19.07.61-27.8-3.85-7.71-3.86-13.39-10.76-17.24-18.26-5.28-10.76-7.92-22.73-8.73-34.5a142.54,142.54,0,0,1,6.29-50.72c3.45-10.35,8.32-20.49,15.83-28.2,6.49-6.5,15.21-10.76,24.55-10.76h.81A28.12,28.12,0,0,1,1532.17,77.17Z"/><path class="cls-2" d="M1626.31,79.41c7.51,3,13.39,9.33,17.45,16.23,2,3.45,3.86,6.69,5.68,10.14,4.06,8.93,5.68,18.67,6.49,28.2a194.74,194.74,0,0,1-1.42,42.21c-1.62,10.95-4,22.11-9.73,31.85-4.06,6.9-10,12.78-17.45,15.83-11.16,4.26-23.95,2.84-34.29-2.64A38.57,38.57,0,0,1,1576.6,204c-4.87-9.94-6.49-21.1-7.1-32a194.41,194.41,0,0,1,3.65-47.28c2.44-10.75,5.48-21.51,11.77-30.64,6.49-9.74,17.65-16.43,29.42-16.84A30.43,30.43,0,0,1,1626.31,79.41Zm-9.94,19.07c-4.06,1.82-7.1,5.27-9.33,8.92-4.06,6.9-6.29,14.82-7.71,22.53a154,154,0,0,0-2.24,34.69c.41,8.32,1.43,16.64,4.27,24.55a26.81,26.81,0,0,0,8.11,12,12.8,12.8,0,0,0,13.8,2c4.87-2.43,7.91-7.1,10.14-12,4.26-9.33,5.89-19.48,6.5-29.42,1.82-31.24-6.09-49.51-11.37-57.62-1.82-3-4.26-5.89-7.91-6.49A10.57,10.57,0,0,0,1616.37,98.48Z"/><path class="cls-2" d="M1724.31,79.41c7.51,3,13.39,9.33,17.45,16.23,2,3.45,3.86,6.69,5.68,10.14,4.06,8.93,5.68,18.67,6.49,28.2a194.74,194.74,0,0,1-1.42,42.21c-1.62,10.95-4,22.11-9.74,31.85-4,6.9-9.94,12.78-17.44,15.83-11.16,4.26-23.95,2.84-34.29-2.64A38.57,38.57,0,0,1,1674.6,204c-4.87-9.94-6.49-21.1-7.1-32a194.41,194.41,0,0,1,3.65-47.28c2.44-10.75,5.48-21.51,11.77-30.64,6.49-9.74,17.65-16.43,29.42-16.84A30.43,30.43,0,0,1,1724.31,79.41Zm-9.94,19.07c-4.06,1.82-7.1,5.27-9.33,8.92-4.06,6.9-6.29,14.82-7.71,22.53a154,154,0,0,0-2.24,34.69c.41,8.32,1.42,16.64,4.26,24.55a26.91,26.91,0,0,0,8.12,12,12.8,12.8,0,0,0,13.8,2c4.87-2.43,7.91-7.1,10.14-12,4.26-9.33,5.89-19.48,6.5-29.42,1.82-31.24-6.09-49.51-11.37-57.62-1.82-3-4.26-5.89-7.91-6.49A10.57,10.57,0,0,0,1714.37,98.48Z"/><path class="cls-2" d="M1805.88,71.9a34,34,0,0,1,12.37,5.68,44.71,44.71,0,0,1,13.19,15c5.68,9.74,8.93,20.09,11.16,30.44,3.65,18.26,3.86,36.32.41,52.75-2.44,11.36-6.7,22.12-14,30a36.49,36.49,0,0,1-21.92,11.77,59.71,59.71,0,0,1-14.81.2,8.85,8.85,0,0,1-2,3.25c-1.62,1.82-4.06,2-6.08,2.43-2.64,1-5.28,2-8.12,1.42-3-.61-4.67-3.65-5.48-6.29-1.82-6.09-2-12.38-2.23-18.67-.2-15.21.61-30.43,1.62-45.65,1-13.79,2.23-27.39,3.86-41-.41-.41-1-.81-1.42-1.22a12.84,12.84,0,0,1-1.83-7.51,44,44,0,0,1,8.12-23.13,26,26,0,0,1,3.85-4.26,5.49,5.49,0,0,1,2.44-1.82,26,26,0,0,1,14.61-4.06A34.45,34.45,0,0,1,1805.88,71.9Zm-7.51,22.93c-.61.4-1.22.6-1.83,1,.81,9.54.81,19.07,1,28.61,0,19.88.2,39.56-.61,59.24,1-.2,2-.2,3-.4a22.26,22.26,0,0,0,13.19-8.32c2.84-3.86,4.67-8.73,6.09-13.59a105.13,105.13,0,0,0,3.45-28,79.85,79.85,0,0,0-2.84-22.53c-1.63-5.07-4.27-10.34-8.73-13.79a13,13,0,0,0-8.11-3A11.88,11.88,0,0,0,1798.37,94.83Z"/><path class="cls-2" d="M1959.76,72.91c4.06.21,8.32.41,11.57,2.84,2.84,2.23,3.65,5.89,3.65,9.54,0,3,.41,6.49-1.42,9.33-2.23,3.25-5.88,4.67-9.33,5.48a130,130,0,0,1-23.34,2.84c-5.27.2-10.34.41-15.62.2.2,3,.41,5.89.41,8.73.2,7.51.4,15,.4,22.52a170.08,170.08,0,0,1,26.18-4.67,54.94,54.94,0,0,1,8.11-.2c4.06.2,8.52.41,11.57,3.25,2.64,2.43,3,6.29,3,9.94,0,2.84.2,6.08-1.62,8.52-2.23,3-5.89,4.46-9.33,5.28a106.43,106.43,0,0,1-23.74,2.84c-4.87.2-9.54.4-14.21.4-.2,5.48-.2,11-.4,16.44-.41,9.94-.61,19.68-2,29.62-.81,4.26-1.42,8.52-3.86,12.17a7.09,7.09,0,0,1-4.87,3.45c-3.24.61-6.29,2.84-9.73,2.44-2.85,0-4.87-2.24-5.69-4.87a50.59,50.59,0,0,1-2.63-15.63,353.34,353.34,0,0,1,1.21-38.75c1.22-18.66,2.84-37.53,5.89-56.2.4-2.84.81-5.48,1.42-8.32-.41-.2-1-.61-1.42-.81a6.26,6.26,0,0,1-2.44-6.29c.61-2.64,1.42-5.28,3.45-7.1a19.28,19.28,0,0,1,4.67-2.23c13.59-5.89,28-8.93,42.4-10.35a5.72,5.72,0,0,0,1.83-.2C1955.91,73.12,1957.94,72.91,1959.76,72.91Z"/><path class="cls-2" d="M2039.3,79.41c7.51,3,13.39,9.33,17.45,16.23,2,3.45,3.85,6.69,5.68,10.14,4.06,8.93,5.68,18.67,6.49,28.2a194.74,194.74,0,0,1-1.42,42.21c-1.62,10.95-4.05,22.11-9.74,31.85-4.05,6.9-9.94,12.78-17.45,15.83-11.15,4.26-23.94,2.84-34.28-2.64A38.57,38.57,0,0,1,1989.59,204c-4.87-9.94-6.49-21.1-7.1-32a194.41,194.41,0,0,1,3.65-47.28c2.44-10.75,5.48-21.51,11.77-30.64,6.49-9.74,17.65-16.43,29.42-16.84A30.43,30.43,0,0,1,2039.3,79.41Zm-9.94,19.07c-4.06,1.82-7.1,5.27-9.33,8.92-4.06,6.9-6.29,14.82-7.71,22.53a153.39,153.39,0,0,0-2.24,34.69c.41,8.32,1.42,16.64,4.26,24.55a26.83,26.83,0,0,0,8.12,12,12.8,12.8,0,0,0,13.8,2c4.87-2.43,7.91-7.1,10.14-12,4.26-9.33,5.89-19.48,6.49-29.42,1.83-31.24-6.08-49.51-11.36-57.62-1.82-3-4.26-5.89-7.91-6.49A10.57,10.57,0,0,0,2029.36,98.48Z"/><path class="cls-2" d="M2137.3,79.41c7.51,3,13.39,9.33,17.45,16.23,2,3.45,3.85,6.69,5.68,10.14,4.06,8.93,5.68,18.67,6.49,28.2a194.74,194.74,0,0,1-1.42,42.21c-1.62,10.95-4.06,22.11-9.74,31.85-4.06,6.9-9.94,12.78-17.45,15.83-11.16,4.26-23.94,2.84-34.29-2.64A38.6,38.6,0,0,1,2087.59,204c-4.87-9.94-6.49-21.1-7.1-32a193.91,193.91,0,0,1,3.65-47.28c2.43-10.75,5.48-21.51,11.77-30.64,6.49-9.74,17.65-16.43,29.42-16.84A30.47,30.47,0,0,1,2137.3,79.41Zm-9.94,19.07c-4.06,1.82-7.11,5.27-9.34,8.92-4.06,6.9-6.29,14.82-7.71,22.53a153.38,153.38,0,0,0-2.23,34.69c.41,8.32,1.42,16.64,4.26,24.55a26.75,26.75,0,0,0,8.12,12,12.78,12.78,0,0,0,13.79,2c4.87-2.43,7.92-7.1,10.15-12,4.26-9.33,5.88-19.48,6.49-29.42,1.83-31.24-6.08-49.51-11.36-57.62-1.83-3-4.26-5.89-7.91-6.49A10.57,10.57,0,0,0,2127.36,98.48Z"/><path class="cls-2" d="M2218.86,71.9a34.12,34.12,0,0,1,12.38,5.68,44.71,44.71,0,0,1,13.19,15c5.68,9.74,8.93,20.09,11.16,30.44,3.65,18.26,3.85,36.32.4,52.75-2.43,11.36-6.69,22.12-14,30a36.49,36.49,0,0,1-21.91,11.77,59.73,59.73,0,0,1-14.81.2,9,9,0,0,1-2,3.25c-1.62,1.82-4.06,2-6.09,2.43-2.63,1-5.27,2-8.11,1.42-3.05-.61-4.67-3.65-5.48-6.29-1.83-6.09-2-12.38-2.23-18.67-.21-15.21.61-30.43,1.62-45.65,1-13.79,2.23-27.39,3.85-41-.4-.41-1-.81-1.42-1.22a12.9,12.9,0,0,1-1.82-7.51,44.12,44.12,0,0,1,8.11-23.13,26.5,26.5,0,0,1,3.86-4.26,5.51,5.51,0,0,1,2.43-1.82,26.07,26.07,0,0,1,14.61-4.06A34.29,34.29,0,0,1,2218.86,71.9Zm-7.5,22.93c-.61.4-1.22.6-1.83,1,.81,9.54.81,19.07,1,28.61,0,19.88.21,39.56-.6,59.24,1-.2,2-.2,3-.4a22.26,22.26,0,0,0,13.19-8.32c2.84-3.86,4.66-8.73,6.08-13.59a104.73,104.73,0,0,0,3.45-28,79.85,79.85,0,0,0-2.84-22.53c-1.62-5.07-4.26-10.34-8.72-13.79a13.07,13.07,0,0,0-8.12-3A11.86,11.86,0,0,0,2211.36,94.83Z"/></svg>